HIERARCHY
ROOT Hips
{
	OFFSET 0.000000 0.000000 0.000000 
	CHANNELS 6 Xposition Yposition Zposition Yrotation Zrotation Xrotation 
	JOINT Lumbar
	{
		OFFSET 0.000000 0.000000 0.000000 
		CHANNELS 3 Zrotation Xrotation Yrotation
		JOINT Neck
		{
			OFFSET 0.000000 0.445665 0.000000 
			CHANNELS 3 Zrotation Xrotation Yrotation
			End Site
			{
				OFFSET 0.000000 0.227535 0.000000 
			}
		}
		JOINT RightShoulder
		{
			OFFSET 0.019635 0.377685 0.194865 
			CHANNELS 3 Zrotation Xrotation Yrotation
			JOINT RightElbow
			{
				OFFSET 0.000000 -0.243375 0.000000 
				CHANNELS 2 Zrotation Yrotation
				JOINT RightWrist
				{
					OFFSET 0.000000 -0.264825 0.000000 
					CHANNELS 2 Zrotation Xrotation
					End Site
					{
						OFFSET 0.006600 -0.176220 0.000990 
					}
				}
			}
		}
		JOINT LeftShoulder
		{
			OFFSET 0.019635 0.377685 -0.194865 
			CHANNELS 3 Zrotation Xrotation Yrotation
			JOINT LeftElbow
			{
				OFFSET 0.000000 -0.243375 0.000000 
				CHANNELS 2 Zrotation Yrotation
				JOINT LeftWrist
				{
					OFFSET 0.000000 -0.264825 0.000000 
					CHANNELS 2 Zrotation Xrotation
					End Site
					{
						OFFSET 0.006600 -0.176220 -0.000990 
					}
				}
			}
		}
	}
	JOINT RightHip
	{
		OFFSET 0.052140 -0.069960 0.075570 
		CHANNELS 3 Zrotation Xrotation Yrotation
		JOINT RightKnee
		{
			OFFSET 0.000000 -0.402270 0.000000 
			CHANNELS 1 Zrotation
			JOINT RightAnkle
			{
				OFFSET 0.000000 -0.404085 0.000000 
				CHANNELS 3 Zrotation Xrotation Yrotation
				End Site
				{
					OFFSET 0.204105 -0.089430 0.008415 
				}
			}
		}
	}
	JOINT LeftHip
	{
		OFFSET 0.052140 -0.069960 -0.075570 
		CHANNELS 3 Zrotation Xrotation Yrotation
		JOINT LeftKnee
		{
			OFFSET 0.000000 -0.402270 0.000000 
			CHANNELS 1 Zrotation
			JOINT LeftAnkle
			{
				OFFSET 0.000000 -0.404085 0.000000 
				CHANNELS 3 Zrotation Xrotation Yrotation
				End Site
				{
					OFFSET 0.204105 -0.089430 -0.008415 
				}
			}
		}
	}
}
MOTION
Frames: 11
Frame Time: 0.02
-1.63122 -0.31973 -0.2537 968.0484 -48.7697 6.69847 50.91585 3.45381 7.55055 -5.84329 -5.778 -0.83079 -35.95994 -10.054 11.27732 73.73915 96.98488 11.92955 0.13047 -31.35509 8.42589 -6.64487 72.56329 -130.30086 21.37139 -5.24231 19.7923 10.42569 13.94569 -0.45867 2.03091 -38.14207 -20.52352 68.98052 15.01365 0.02757 -28.61653 -13.15449 5.51245 3.97503
-1.63325 -0.32056 -0.23343 968.03607 -48.60035 6.6657 51.63442 3.11773 6.99067 -6.35593 -5.43089 -0.83079 -35.52688 -9.68565 10.7543 73.18906 97.38762 12.54959 0.08478 -31.63166 8.19772 -6.16756 72.66802 -127.19183 20.89033 -4.67254 19.80426 9.96288 14.1689 -2.90516 1.71939 -35.69855 -19.16978 68.27691 14.49946 -0.33149 -29.68537 -13.06411 5.51661 3.97186
-1.63489 -0.32065 -0.21222 968.22654 -48.34827 6.71218 52.41459 2.74185 6.41939 -6.98159 -5.01834 -0.83079 -35.05001 -9.08907 9.98775 72.48842 98.60418 13.44023 0.16309 -31.81054 8.22073 -5.97702 72.49992 -121.17994 19.55737 -3.66675 20.17427 9.44918 11.34205 -6.10048 1.8822 -28.7407 -15.44054 67.38344 13.80258 -0.86549 -30.68446 -12.86556 5.52354 3.96425
-1.63664 -0.32105 -0.19147 968.34592 -48.12788 6.72668 53.15686 2.38108 5.84834 -7.54967 -4.63495 -0.83079 -34.59061 -8.62007 9.36296 71.87703 99.41752 14.19837 0.17976 -32.03036 8.13464 -5.66918 72.46692 -116.73221 18.68803 -2.89507 20.44173 8.94294 9.97013 -9.03788 1.74094 -24.04601 -12.90814 66.55206 13.19866 -1.25147 -31.68065 -12.70531 5.52653 3.95643
-1.63864 -0.32155 -0.1705 968.37329 -47.93344 6.72644 53.94878 2.03129 5.29822 -8.14773 -4.25092 -0.83079 -34.13894 -8.05827 8.61373 71.18018 100.33028 14.99216 0.21026 -32.26574 8.01465 -5.29195 72.39705 -111.32979 17.53079 -1.9809 20.45706 8.49364 8.39116 -11.64197 1.93892 -18.5655 -9.93734 65.8144 12.55167 -1.9037 -32.83523 -12.5892 5.53855 3.95659
-1.64002 -0.32168 -0.14982 968.64404 -47.66457 6.77438 54.6465 1.65008 4.70092 -8.7078 -3.85456 -0.83079 -33.66208 -7.63321 8.06451 70.62447 101.24203 15.77627 0.24434 -32.44475 8.02914 -5.13283 72.33333 -107.18943 16.7544 -1.2557 21.08105 7.92098 6.49072 -15.10246 1.56795 -13.61048 -7.29415 64.84099 11.95135 -2.05779 -33.63943 -12.35706 5.5329 3.93944
-1.63982 -0.32096 -0.12998 969.50855 -47.21508 6.94149 55.09883 1.18864 3.98749 -9.14695 -3.43158 -0.83079 -33.12298 -7.63244 8.11046 70.49813 101.99088 16.48495 0.26213 -32.49729 8.36049 -5.50571 72.3787 -107.33154 17.27812 -1.16868 23.30868 6.97334 4.40096 -20.86436 -0.6368 -11.18323 -6.13084 63.24753 11.52614 -0.71898 -33.48288 -11.81937 5.48244 3.87764
-1.63898 -0.31992 -0.1105 970.61688 -46.6929 7.15292 55.44814 0.69807 3.22545 -9.54136 -3.00044 -0.83079 -32.56153 -7.77729 8.3672 70.51869 102.70965 17.17194 0.27973 -32.49576 8.81848 -6.08937 72.43438 -108.82163 18.20398 -1.28457 26.13435 5.91281 2.08863 -27.43544 -3.40082 -9.42966 -5.37199 61.42793 11.15448 1.11076 -32.97635 -11.17103 5.41353 3.7984
-1.6384 -0.31905 -0.09097 971.63178 -46.20044 7.34036 55.8241 0.22269 2.47775 -9.94834 -2.57888 -0.83079 -32.01215 -7.86061 8.53828 70.46919 103.42324 17.85854 0.29593 -32.51497 9.21663 -6.57988 72.46695 -109.62173 18.91321 -1.29909 28.67924 4.93528 -0.10195 -33.56225 -5.80878 -7.37079 -4.424 59.7221 10.75696 2.66483 -32.63464 -10.58094 5.35051 3.72608
-1.63795 -0.31804 -0.0709 972.57836 -45.71778 7.54746 56.28666 -0.26373 1.76043 -10.39239 -2.12989 -0.83079 -31.45086 -7.91783 8.6617 70.42634 104.24454 18.59864 0.32252 -32.54547 9.63555 -7.07282 72.56577 -110.63128 19.73052 -1.33429 31.2748 3.82182 -2.48119 -40.05505 -8.62802 -5.15477 -3.41752 57.9602 10.35785 4.43587 -32.26556 -9.95299 5.29842 3.65795
-1.63709 -0.31726 -0.05208 973.72504 -45.20019 7.72234 56.54454 -0.73181 0.97088 -10.74675 -1.73735 -0.83079 -30.91247 -8.06526 8.93322 70.40905 104.82321 19.21754 0.32592 -32.54277 10.03479 -7.60227 72.5353 -111.58396 20.43645 -1.38394 33.90193 2.96567 -4.48487 -45.947 -10.73299 -3.48199 -2.65859 56.26749 9.9792 5.8727 -31.87228 -9.37959 5.21872 3.57686
